<svg id="apple-store" xmlns="http://www.w3.org/2000/svg" width="239.679" height="68.864" viewBox="0 0 239.679 68.864">
  <path id="Path_3066" data-name="Path 3066" d="M416.756,961.7H304.66c-5.18,0-7.811-2.612-7.815-7.835q-.019-26.59,0-53.181c0-5.167,2.687-7.841,7.871-7.841q112-.012,223.991,0c5.13,0,7.8,2.74,7.8,7.9q0,26.59,0,53.181,0,7.776-7.862,7.776Z" transform="translate(-296.835 -892.836)"/>
  <path id="Path_3067" data-name="Path 3067" d="M361.432,944.1a11.724,11.724,0,0,1,4.655,1.22,6.082,6.082,0,0,0,5.6,0,11.484,11.484,0,0,1,12.387,1.011c2.145,1.664,2.146,1.906.266,3.719a9.881,9.881,0,0,0,1.632,15.759c1.182.735,1.331,1.341.829,2.5a30.515,30.515,0,0,1-5.141,8.16c-2.128,2.408-4.518,3.042-7.466,1.726a10.712,10.712,0,0,0-9.515.058,5.364,5.364,0,0,1-6.676-1.162c-6.154-6.7-9.279-14.482-7.524-23.653A11.423,11.423,0,0,1,361.432,944.1Z" transform="translate(-328.476 -923.27)" fill="#fefefe"/>
  <path id="Path_3068" data-name="Path 3068" d="M592.334,1001.6c0,2.6-.1,4.963.034,7.309.1,1.728-1,1.365-1.949,1.375-.974.009-1.963.31-1.952-1.4.047-7.327-.031-14.655-.1-21.982-.008-.8.244-1.239,1-1.045.845.218,2.118-.781,2.5.788a9.762,9.762,0,0,1,.1,1.609c1.333-1.025,2.406-2.217,4.03-2.547a7.062,7.062,0,0,1,8.383,4.6,12.888,12.888,0,0,1,.3,7.163C603.6,1002.61,597.66,1005.924,592.334,1001.6Z" transform="translate(-470.338 -948.01)" fill="#fefefe"/>
  <path id="Path_3069" data-name="Path 3069" d="M543.437,1001.566c0,2.436-.068,4.585.024,6.726.06,1.425-.125,2.163-1.894,2.108-1.585-.049-2.022-.443-2-2.033.094-6.2.039-12.4.038-18.594,0-.539.021-1.08-.02-1.616-.185-2.379-.021-2.549,2.291-2.281,1.008.117,1.008.117,1.228,2.459a7.429,7.429,0,0,1,5.65-2.728,6.328,6.328,0,0,1,6,3.394,10.968,10.968,0,0,1-.036,11C552.421,1004.122,547.438,1004.835,543.437,1001.566Z" transform="translate(-441.277 -948.049)" fill="#fefefe"/>
  <path id="Path_3070" data-name="Path 3070" d="M501.849,993.525c-.13.067-.186.118-.246.123-3.657.337-3.657.337-4.774-3.177-1.168-3.673-1.168-3.673-5.118-3.673-3.8,0-3.8,0-4.9,3.619-.117.386-.254.766-.369,1.152a2.9,2.9,0,0,1-4,2.169c-.77-.223-.5-.66-.368-1.068,2.366-7.352,4.755-14.7,7.1-22.056.2-.636.48-.889,1.113-.864a8.441,8.441,0,0,0,1.818-.013c1.758-.316,2.387.539,2.878,2.131,2.136,6.932,4.418,13.819,6.643,20.724C501.727,992.9,501.779,993.226,501.849,993.525Z" transform="translate(-406.99 -938.565)" fill="#fefefe"/>
  <path id="Path_3071" data-name="Path 3071" d="M660.723,973.263a10.129,10.129,0,0,0-5.361-.972,3.325,3.325,0,0,0-3.217,2.592,3,3,0,0,0,1.787,3.315c1.393.8,2.919,1.36,4.356,2.086,3.469,1.751,4.785,4.119,4.29,7.62-.4,2.846-2.6,4.927-6.08,5.613a13.316,13.316,0,0,1-7.346-.589c-.525-.2-1.334-.276-1.21-1.083a7.059,7.059,0,0,1,.77-2.47c.288-.492.848.1,1.235.271a10.35,10.35,0,0,0,5.33.78,3.54,3.54,0,0,0,3.421-2.66,3.286,3.286,0,0,0-1.8-3.894c-1.1-.631-2.311-1.065-3.462-1.609-2.171-1.025-4.189-2.253-4.965-4.713a6.487,6.487,0,0,1,4.711-8.13,14.17,14.17,0,0,1,6.6-.032c1.544.308,2.285.952,1.469,2.565C661.051,972.361,660.909,972.8,660.723,973.263Z" transform="translate(-505.79 -938.174)" fill="#fefefe"/>
  <path id="Path_3072" data-name="Path 3072" d="M720.9,994.607c.054-5.473,3.477-8.977,8.733-8.941,5.147.035,8.282,3.514,8.209,9.109-.071,5.472-3.488,8.923-8.789,8.876C724.13,1003.608,720.847,999.966,720.9,994.607Z" transform="translate(-549.219 -948.084)" fill="#fefefe"/>
  <path id="Path_3073" data-name="Path 3073" d="M807.339,995.435c-1.483,0-2.972.076-4.448-.021-1.371-.091-1.386.5-1.065,1.544a5.027,5.027,0,0,0,5.24,3.6,14.641,14.641,0,0,0,3.191-.433c.819-.192,1.53-.6,1.742.714.161,1,.317,1.783-1.015,2.092a16.386,16.386,0,0,1-6.207.45c-4.98-.763-7.753-5.137-6.79-10.562.951-5.36,4.912-8.194,10-7.158,3.442.7,6.358,5.776,5.274,9.109-.236.727-.746.655-1.272.657C810.44,995.44,808.889,995.435,807.339,995.435Z" transform="translate(-594.984 -947.958)" fill="#fefefe"/>
  <path id="Path_3074" data-name="Path 3074" d="M695.808,975.945a8.377,8.377,0,0,1,.121.845c.1,3.022.1,3.1,3.2,3.3,1.34.086,1.052.889,1.093,1.653.043.8.006,1.357-1.111,1.43-3.183.208-3.181.27-3.178,3.523,0,1.751-.07,3.508.041,5.252.1,1.641.746,2.908,2.765,2.63.758-.1,1.341.011,1.222.984-.1.786.444,1.747-.83,2.165a5.009,5.009,0,0,1-6.914-4.784c-.117-2.757-.068-5.523-.017-8.284.019-1.038-.124-1.71-1.386-1.527-1.315.191-1.106-.76-1.151-1.559-.052-.932.073-1.6,1.272-1.469.467.049,1.364.2,1.2-.6C691.512,976.538,693.77,976.547,695.808,975.945Z" transform="translate(-530.624 -942.299)" fill="#fdfdfd"/>
  <path id="Path_3075" data-name="Path 3075" d="M774.264,988.977c1.312-1.978,2.492-3.293,4.561-3.346.944-.024,1.532.289,1.239,1.236-.255.826.99,2.253-.972,2.453-2.88.295-3.99,1.239-4.241,4.1a74.7,74.7,0,0,0-.146,8.471c.057,2.161-1.474,1.123-2.366,1.317-1.025.223-1.544-.073-1.523-1.335.08-4.712.032-9.426.028-14.14,0-.987-.292-1.994,1.43-1.906,1.385.072,2.235.212,1.925,1.847A8.16,8.16,0,0,0,774.264,988.977Z" transform="translate(-578.927 -948.062)" fill="#fdfdfd"/>
  <path id="Path_3076" data-name="Path 3076" d="M405.061,918.3a9.984,9.984,0,0,1-7.646,9.052c-1.406.3-1.754-.1-1.645-1.489.317-4.044,3.937-8.2,7.894-8.91C404.972,916.72,405.166,916.907,405.061,918.3Z" transform="translate(-355.705 -907.139)" fill="#fdfdfd"/>
  <path id="Path_3077" data-name="Path 3077" d="M494.29,930.941c1.142-3.621,2.323-7.176,3.36-10.772.294-1.019.784-1.192,1.7-1.19.893,0,1.478.119,1.777,1.13.967,3.272,2.044,6.511,3.05,9.771.118.381.592.985-.067,1.176-.569.164-1.332.4-1.842-.235a1.873,1.873,0,0,1-.369-.926c-.193-1.823-1.314-2.085-2.912-2.04-1.206.034-1.877.3-2.036,1.557C496.766,930.869,496.021,931.581,494.29,930.941Z" transform="translate(-414.351 -908.395)" fill="#fdfdfd"/>
  <path id="Path_3078" data-name="Path 3078" d="M628.078,922.712c2.548-1.384,4.085-1.332,5.329.049a5.348,5.348,0,0,1,.165,6.22,3.534,3.534,0,0,1-3.725,1.454c-.879-.192-1.734-1.535-2.708.056-.212.346-1.194.159-1.172-.924.074-3.5.041-7,.017-10.507-.005-.717.109-1.087.97-1.091.877,0,1.2.238,1.14,1.137C628.024,920.247,628.078,921.395,628.078,922.712Z" transform="translate(-492.72 -907.794)" fill="#fdfdfd"/>
  <path id="Path_3079" data-name="Path 3079" d="M789.924,922.669c3.548-1.83,5.4-.714,5.5,3.137.035,1.279-.025,2.561.017,3.84.024.728-.284.911-.957.91s-.976-.186-.954-.911c.039-1.346.053-2.7-.01-4.042-.053-1.143-.4-2.27-1.793-2.228-1.321.04-1.762,1.081-1.791,2.271-.03,1.28-.043,2.562,0,3.841.026.768-.219,1.053-1.026,1.08-.938.032-.912-.481-.91-1.13q.019-5.155,0-10.31c0-.617-.091-1.162.877-1.162,1,0,1.079.489,1.053,1.258C789.9,920.3,789.924,921.372,789.924,922.669Z" transform="translate(-589.154 -907.791)" fill="#fbfbfb"/>
  <path id="Path_3080" data-name="Path 3080" d="M672.293,934.323c.473.247,1.351-.737,1.586.416.26,1.276-.908.954-1.472,1.077-2.718.593-5.038-.753-5.5-3.081a4.7,4.7,0,0,1,3.2-5.553,3.861,3.861,0,0,1,4.5,4.508c-.154.687-.572.632-1.031.636-1.145.01-2.291-.029-3.434.023-.393.018-1.036-.343-1.145.376-.075.5.325.862.715,1.144A3.741,3.741,0,0,0,672.293,934.323Z" transform="translate(-517.029 -913.223)" fill="#fbfbfb"/>
  <path id="Path_3081" data-name="Path 3081" d="M712.984,931.659c.018,2.845-1.544,4.529-4.192,4.519-2.544-.009-4.12-1.706-4.095-4.409.025-2.673,1.651-4.43,4.133-4.463C711.383,927.271,712.967,928.931,712.984,931.659Z" transform="translate(-539.576 -913.35)" fill="#fbfbfb"/>
  <path id="Path_3082" data-name="Path 3082" d="M554.865,932.551a23.918,23.918,0,0,0,.016,2.422c.119,1.17-1.016,1.151-1.24.863-.846-1.086-1.587-.343-2.393-.126a2.548,2.548,0,0,1-2.175-4.575,6.612,6.612,0,0,1,2.665-.876c.344-.081.919.162.957-.419a1.159,1.159,0,0,0-.878-1.2,3.486,3.486,0,0,0-1.988.056c-.436.1-1,.685-1.174-.315-.132-.756.359-.878.9-1.063,3.13-1.078,5.244.357,5.3,3.621.009.539,0,1.078,0,1.617Z" transform="translate(-446.21 -913.145)" fill="#fcfcfc"/>
  <path id="Path_3083" data-name="Path 3083" d="M607.857,932.53c0,.808-.056,1.621.013,2.424.117,1.36-1.334,1.044-1.407.877-.617-1.406-1.354-.391-2.013-.185a2.5,2.5,0,0,1-3.288-1.15c-.768-1.431-.208-2.587,1.061-3.464a8.518,8.518,0,0,1,2.287-.754c.411-.141,1.256.325,1.169-.626a1.2,1.2,0,0,0-1.249-1.1,10.866,10.866,0,0,0-1.592.132c-.434.046-.994.714-1.187-.3-.143-.753.337-.887.878-1.076,3.119-1.09,5.257.349,5.316,3.6.01.539,0,1.078,0,1.617Z" transform="translate(-477.749 -913.14)" fill="#fcfcfc"/>
  <path id="Path_3084" data-name="Path 3084" d="M817.355,936.047c-1.932.076-3.419-.589-4.1-2.54A5,5,0,0,1,814.664,928a3.683,3.683,0,0,1,4.179-.311c1.333.7,1.626,2.04,1.734,3.434.067.855-.385,1.017-1.1,1q-1.617-.039-3.234,0c-.435.012-1.055-.232-1.234.356a1.407,1.407,0,0,0,.565,1.43,3.307,3.307,0,0,0,2.836.679c.531-.086,1.395-.8,1.538.436.121,1.042-.8.873-1.385,1A5.725,5.725,0,0,1,817.355,936.047Z" transform="translate(-604.012 -913.279)" fill="#fafafa"/>
  <path id="Path_3085" data-name="Path 3085" d="M739.39,932.908c0,.807-.021,1.615.007,2.421.022.646-.323.773-.874.772-.587,0-1.057-.021-1.028-.824.042-1.142.017-2.286.006-3.43-.013-1.309-.027-2.884-1.721-2.9-1.789-.015-1.885,1.582-1.892,2.985,0,.941,0,1.883,0,2.825,0,.656.158,1.324-.93,1.366-1.066.041-1-.541-.993-1.248.011-2.084.025-4.17-.029-6.254-.019-.727.22-1.454.9-1.021,1.1.7,1.863.117,2.806-.165a2.75,2.75,0,0,1,3.636,2.451c.142.993.109,2.012.156,3.019Z" transform="translate(-555.786 -913.345)" fill="#fbfbfb"/>
  <path id="Path_3086" data-name="Path 3086" d="M523.055,927.1c1.818-.677,2.48.213,2.84,1.76.347,1.494.858,2.95,1.407,4.792.546-1.875,1.071-3.374,1.407-4.915s1.066-2.189,2.736-1.636c-.962,2.63-1.948,5.255-2.872,7.9a1.135,1.135,0,0,1-1.332.859c-.655-.028-1.123-.094-1.377-.843C524.963,932.356,523.993,929.723,523.055,927.1Z" transform="translate(-431.471 -913.089)" fill="#fcfcfc"/>
  <path id="Path_3087" data-name="Path 3087" d="M590.094,924.449c0,1.68-.023,3.36.011,5.039.015.715-.11,1.089-.97,1.093s-1.153-.23-1.141-1.125q.072-5.24,0-10.481c-.01-.845.33-.981,1.069-.987.771-.006,1.066.213,1.044,1.018C590.06,920.82,590.094,922.635,590.094,924.449Z" transform="translate(-470.12 -907.806)" fill="#fefefe"/>
  <path id="Path_3088" data-name="Path 3088" d="M654.023,924.264c0-1.68.013-3.36-.006-5.039-.008-.71-.06-1.281.993-1.266.913.013,1.121.314,1.111,1.166q-.061,5.139,0,10.279c.01.853-.2,1.151-1.112,1.165-1.053.016-1-.558-.992-1.266C654.035,927.624,654.023,925.944,654.023,924.264Z" transform="translate(-509.412 -907.788)" fill="#fefefe"/>
  <path id="Path_3089" data-name="Path 3089" d="M772.493,933.546a2.065,2.065,0,0,1-2.391-2.138c-.1-1.132-.013-2.278-.06-3.416-.027-.664.339-1.547-.828-1.7a.544.544,0,0,1-.349-.771c.959-.541,1.044-1.724,1.818-2.358.283-.232,1.039-.374,1.036-.028-.015,1.447.571,2.029,2,1.9.268-.024.327.353.321.637a.624.624,0,0,1-.793.658c-1.468-.19-1.55.763-1.364,1.747.269,1.423-.992,3.525,1.7,3.967.423.07.366.7.251,1.063C773.6,933.845,772.926,933.413,772.493,933.546Z" transform="translate(-577.729 -910.744)" fill="#fdfcfc"/>
  <path id="Path_3090" data-name="Path 3090" d="M574.02,931.267c0-1.074.032-2.149-.011-3.221-.029-.725.125-1.076.973-1.081.876-.005,1.159.246,1.137,1.135-.057,2.28-.053,4.563,0,6.844.019.864-.373.954-1.088.972-.792.021-1.06-.24-1.024-1.027C574.06,933.685,574.02,932.475,574.02,931.267Z" transform="translate(-461.792 -913.148)" fill="#fefefe"/>
  <path id="Path_3091" data-name="Path 3091" d="M576.5,920.084a1.152,1.152,0,0,1-1.151,1.264A1.078,1.078,0,0,1,574.1,920.3a1.1,1.1,0,0,1,1.125-1.179C575.955,919.053,576.285,919.571,576.5,920.084Z" transform="translate(-461.852 -908.476)" fill="#ebeaeb"/>
  <path id="Path_3092" data-name="Path 3092" d="M598.171,999.244c0-.134,0-.269,0-.4.019-3.355,1.651-5.6,4.159-5.71,2.552-.116,4.469,2.2,4.621,5.575.009.2.019.4.011.6-.145,3.51-2.018,5.819-4.669,5.763S598.171,1002.94,598.171,999.244Z" transform="translate(-476.177 -952.524)" fill="#010101"/>
  <path id="Path_3093" data-name="Path 3093" d="M549.177,999.192c0-.067,0-.134,0-.2.007-3.67,1.7-5.934,4.38-5.866,2.577.066,4.379,2.569,4.342,6.034-.037,3.518-1.824,5.878-4.477,5.913C550.671,1005.107,549.174,1003.034,549.177,999.192Z" transform="translate(-447.017 -952.522)" fill="#010101"/>
  <path id="Path_3094" data-name="Path 3094" d="M502.3,978.907c1.05,3.4,1.925,6.351,2.893,9.276.3.892.192,1.113-.788,1.177-5.348.35-5.336.38-3.774-4.676C501.18,982.917,501.663,981.131,502.3,978.907Z" transform="translate(-417.588 -944.061)" fill="#050404"/>
  <path id="Path_3095" data-name="Path 3095" d="M730.746,998.837a7.084,7.084,0,0,1,1.553-4.865,3.815,3.815,0,0,1,6.182.445,7.861,7.861,0,0,1,.349,8.051,3.845,3.845,0,0,1-3.812,2.445,4.049,4.049,0,0,1-3.54-2.565A7.559,7.559,0,0,1,730.746,998.837Z" transform="translate(-555.079 -952.211)" fill="#010000"/>
  <path id="Path_3096" data-name="Path 3096" d="M807.37,996.609a4.987,4.987,0,0,1,1.823-3.657,3.455,3.455,0,0,1,3.777-.529c1.494.637,1.961,1.93,2.268,3.345.138.634-.213.842-.782.842C812.113,996.607,809.77,996.609,807.37,996.609Z" transform="translate(-600.682 -951.906)" fill="#030303"/>
  <path id="Path_3097" data-name="Path 3097" d="M504.509,923.494l1.54,5.33a7.59,7.59,0,0,1-2.978.053C503.526,927.177,503.967,925.522,504.509,923.494Z" transform="translate(-419.577 -911.082)" fill="#0c0c0c"/>
  <path id="Path_3098" data-name="Path 3098" d="M631.138,934.14c-.04-1.58.351-2.874,2.113-2.893s2.221,1.309,2.224,2.771c0,1.507-.62,2.743-2.31,2.713C631.554,936.7,631.055,935.533,631.138,934.14Z" transform="translate(-495.792 -915.697)" fill="#070707"/>
  <path id="Path_3099" data-name="Path 3099" d="M674.061,933.126c-.671-.335-1.738.4-1.738-.647a1.672,1.672,0,0,1,1.867-1.707,1.5,1.5,0,0,1,1.575,1.527C675.751,933.79,674.444,932.508,674.061,933.126Z" transform="translate(-520.308 -915.412)" fill="#070707"/>
  <path id="Path_3100" data-name="Path 3100" d="M713.818,933.964c-.121,1.5-.483,2.817-2.146,3.053-1.189.169-2.311-1.423-2.291-3.061.021-1.739,1.054-3.039,2.387-2.9C713.573,931.247,713.643,932.689,713.818,933.964Z" transform="translate(-542.363 -915.577)" fill="#030303"/>
  <path id="Path_3101" data-name="Path 3101" d="M555.894,939.421a1.566,1.566,0,0,1-1.771,1.717,1.033,1.033,0,0,1-1.075-1.177c.038-1.431,1.227-1.4,2.149-1.591C556.1,938.187,555.8,938.982,555.894,939.421Z" transform="translate(-449.321 -919.92)" fill="#0e0e0e"/>
  <path id="Path_3102" data-name="Path 3102" d="M607.277,941.125a1.1,1.1,0,0,1-1.235-1.162c-.032-1.325,1.06-1.341,1.917-1.606.73-.226.909.158.936.822A1.672,1.672,0,0,1,607.277,941.125Z" transform="translate(-480.861 -919.889)" fill="#0e0e0e"/>
  <path id="Path_3103" data-name="Path 3103" d="M819.919,933.017c-.569-.425-1.716.5-1.7-.709a1.646,1.646,0,0,1,1.832-1.518,1.494,1.494,0,0,1,1.658,1.43C821.705,933.682,820.428,932.473,819.919,933.017Z" transform="translate(-607.137 -915.424)" fill="#050505"/>
</svg>
